<svg width="248" height="154" viewBox="0 0 248 154" fill="none" xmlns="http://www.w3.org/2000/svg">
<g id="aws">
<g id="Group 45">
<g id="cw-partner-aws-logo 1" clip-path="url(#clip0_224_50)">
<g id="Group">
<path id="Vector" d="M71.0604 55.6062C71.0216 58.6554 71.3132 61.1318 71.8553 62.9521C72.4782 64.7733 73.2604 66.7614 74.3635 68.9184C74.7588 69.5829 74.9119 70.2442 74.9046 70.8211C74.8941 71.6452 74.3993 72.4631 73.3392 73.2739L68.209 76.6706C67.4761 77.1558 66.7463 77.3939 66.1005 77.3857C65.2931 77.3754 64.491 76.9531 63.693 76.2012C62.5784 74.9506 61.6264 73.6198 60.8358 72.2909C60.0462 70.8797 59.2587 69.3036 58.3947 67.3969C52.0011 74.8988 44.0409 78.5892 34.5142 78.4683C27.7324 78.3822 22.3483 76.3356 18.4425 72.3297C14.5367 68.3237 12.5853 63.0238 12.669 56.4309C12.7579 49.426 15.2522 43.7704 20.2314 39.5476C25.2107 35.3247 31.7774 33.2651 40.0931 33.3706C42.8381 33.4055 45.6607 33.6886 48.6427 34.1386C51.6246 34.5885 54.6842 35.2868 57.9042 36.0695L57.9806 30.0535C58.0601 23.7902 56.8238 19.4061 54.3534 16.8196C51.8023 14.232 47.4583 12.9405 41.2417 12.8616C38.416 12.8257 35.5053 13.1184 32.5087 13.8222C29.5121 14.526 26.5941 15.3956 23.7538 16.5135C22.4547 17.074 21.4817 17.3913 20.9144 17.549C20.3472 17.7066 19.9425 17.7839 19.6195 17.7798C18.4892 17.7654 17.9346 16.9342 17.9565 15.2035L18.0078 11.1654C18.0245 9.84682 18.1986 8.85993 18.6096 8.28818C19.0206 7.71643 19.7545 7.14878 20.8921 6.58625C23.7367 5.13873 27.1432 3.94562 31.1118 3.00691C35.0814 1.98579 39.286 1.54463 43.7264 1.601C53.3339 1.72298 60.3296 4.03725 64.7942 8.54484C69.1782 13.0514 71.353 19.8378 71.2379 28.903L70.8989 55.6042L71.0604 55.6062ZM38.1229 67.7165C40.7871 67.7503 43.5384 67.2907 46.4574 66.3387C49.3764 65.3867 51.983 63.6064 54.1942 61.1618C55.5058 59.6124 56.4966 57.894 57.0062 55.9223C57.5157 53.9506 57.869 51.5648 57.9045 48.7628L57.9485 45.3016C55.6145 44.695 53.118 44.1687 50.5386 43.8063C47.9593 43.4438 45.4586 43.2472 42.9558 43.2155C37.5466 43.1468 33.5769 44.1679 30.8844 46.3592C28.1919 48.5504 26.8604 51.6657 26.8081 55.7862C26.7589 59.6595 27.6911 62.5562 29.6844 64.5597C31.5959 66.6446 34.409 67.6694 38.1229 67.7165ZM102.84 77.44C101.387 77.4215 100.421 77.162 99.7827 76.5769C99.1431 76.0743 98.5926 74.9133 98.1281 73.3414L79.9641 9.39682C79.5006 7.74246 79.272 6.66804 79.2793 6.09116C79.2961 4.77259 79.9513 4.03909 81.2431 4.05549L89.1552 4.15594C90.6891 4.17541 91.7355 4.43597 92.2934 5.02002C92.933 5.52269 93.4027 6.68259 93.8673 8.25455L106.738 62.9828L120.025 8.58665C120.45 6.94355 120.948 5.87836 121.6 5.3921C122.252 4.90583 123.387 4.59054 124.84 4.60899L131.299 4.69099C132.833 4.71046 133.879 4.97102 134.518 5.5561C135.157 6.05876 135.708 7.21969 136.011 8.7896L148.066 64.1669L162.734 9.12887C163.24 7.4868 163.818 6.42263 164.39 5.93534C165.042 5.44908 166.096 5.13276 167.549 5.15121L175.057 5.24653C176.349 5.26293 177.067 5.93145 177.05 7.33243C177.044 7.74449 176.958 8.15552 176.871 8.64896C176.784 9.1424 176.614 9.79964 176.28 10.7021L156.014 74.1587C155.509 75.8008 154.93 76.8649 154.278 77.3512C153.626 77.8375 152.572 78.1538 151.199 78.1364L144.256 78.0482C142.722 78.0287 141.676 77.7682 141.037 77.1831C140.399 76.598 139.847 75.5195 139.545 73.8672L127.706 20.5532L114.599 73.4681C114.174 75.1111 113.676 76.1763 113.023 76.745C112.37 77.3137 111.237 77.5466 109.783 77.5281L102.84 77.44ZM206.557 80.9822C202.358 80.9289 198.166 80.3811 194.142 79.3409C190.118 78.3008 186.983 77.1894 184.899 75.9266C183.617 75.1685 182.74 74.3331 182.426 73.5874C182.112 72.8416 181.961 72.0154 181.971 71.2737L182.024 67.0707C182.046 65.3401 182.703 64.5242 183.914 64.5396C184.398 64.5457 184.881 64.6343 185.364 64.8053C185.846 64.9762 186.568 65.3151 187.372 65.655C190.101 66.926 193.076 67.9529 196.216 68.6521C199.437 69.3524 202.581 69.722 205.811 69.763C210.897 69.8276 214.865 68.9713 217.633 67.1931C220.401 65.4149 221.887 62.7962 221.93 59.4174C221.96 57.1099 221.257 55.2052 219.824 53.6209C218.39 52.0367 215.663 50.6008 211.724 49.232L200.064 45.3749C194.195 43.4046 189.871 40.5473 187.253 36.805C184.635 33.1451 183.314 29.0895 183.368 24.8042C183.412 21.3429 184.178 18.3029 185.664 15.6842C187.151 13.0655 189.118 10.7826 191.563 9.00033C194.009 7.13563 196.772 5.76949 200.014 4.82156C203.256 3.87363 206.652 3.50462 210.204 3.54972C211.98 3.57227 213.836 3.67826 215.609 3.94804C217.463 4.21885 219.154 4.57002 220.846 4.92119C222.455 5.35374 223.984 5.78527 225.431 6.29819C226.878 6.8111 228.002 7.31992 228.803 7.82463C229.925 8.49827 230.724 9.16781 231.199 9.91566C231.675 10.5811 231.905 11.4907 231.891 12.6444L231.842 16.5178C231.82 18.2484 231.162 19.1467 229.951 19.1313C229.305 19.1231 228.26 18.7802 226.896 18.1035C222.321 15.9023 217.168 14.7654 211.436 14.6926C206.834 14.6342 203.191 15.3298 200.668 16.8638C198.146 18.3978 196.824 20.7714 196.781 24.1502C196.752 26.4577 197.534 28.4458 199.129 30.0321C200.723 31.6184 203.691 33.2222 207.952 34.6775L219.369 38.5315C225.158 40.5008 229.323 43.1912 231.783 46.6019C234.243 50.0125 235.404 53.9012 235.35 58.1865C235.305 61.7302 234.538 64.935 233.13 67.7196C231.641 70.5031 229.672 72.9508 227.144 74.8969C224.615 76.9254 221.609 78.3709 218.124 79.3981C214.476 80.5058 210.674 81.0345 206.557 80.9822Z" fill="white"/>
<g id="Group_2">
<path id="Vector_2" fill-rule="evenodd" clip-rule="evenodd" d="M221.307 121.228C194.491 140.916 155.764 151.057 122.582 150.636C76.0786 150.046 34.3999 131.96 3.1221 102.385C0.648611 100.046 2.94895 96.9426 5.91314 98.7936C39.8874 119.501 81.956 132.317 125.634 132.871C155.102 133.245 187.556 127.393 217.511 114.915C221.977 112.911 225.708 117.986 221.307 121.228Z" fill="#FF9900"/>
<path id="Vector_3" fill-rule="evenodd" clip-rule="evenodd" d="M232.531 108.512C229.196 104.019 210.114 106.085 201.461 107.046C198.874 107.343 198.499 105.031 200.863 103.33C216.179 92.6441 241.086 96.0924 243.947 99.7554C246.806 103.501 242.769 128.919 228.405 140.935C226.201 142.803 224.114 141.787 225.114 139.327C228.447 131.209 235.866 112.923 232.531 108.512Z" fill="#FF9900"/>
</g>
</g>
</g>
</g>
</g>
<defs>
<clipPath id="clip0_224_50">
<rect width="245.455" height="150" fill="white" transform="translate(2) rotate(0.727377)"/>
</clipPath>
</defs>
</svg>
