<svg width="258" height="150" viewBox="0 0 258 150" fill="none" xmlns="http://www.w3.org/2000/svg">
<path d="M258 146.025C248.616 148.417 242.813 146.128 237.606 138.295C225.917 120.753 213.014 104.015 200.564 86.9672C198.959 84.7615 197.292 82.5971 195.213 79.8554C180.479 99.7682 165.765 118.733 151.956 138.46C147.017 145.51 141.831 148.581 132.612 146.087L188.011 71.61L136.439 4.34759C145.309 2.61605 151.441 3.50244 156.874 11.4593C168.872 29.0222 182.104 45.7398 195.296 63.4264C208.569 45.8017 221.637 29.0634 233.984 11.6654C238.944 4.61557 244.274 1.9358 253.185 4.53312C246.435 13.5001 239.829 22.3227 233.182 31.0835C224.209 42.8952 215.401 54.8511 206.1 66.4153C202.786 70.5381 203.321 73.2179 206.285 77.1138C223.489 99.7683 240.487 122.649 258 146.025ZM0.0617374 70.3732C1.54343 62.9316 2.53123 55.3458 4.58914 48.0486C16.9366 3.87348 67.5611 -14.4933 102.34 12.8817C122.713 28.9397 127.776 51.5735 126.767 77.0932H11.9359C10.2072 122.876 43.1132 150.519 85.0534 136.419C99.7674 131.472 108.431 119.928 112.773 105.499C114.975 98.2635 118.618 97.1297 125.409 99.1911C121.931 117.249 114.049 132.338 97.586 141.779C72.8911 155.92 37.6392 151.344 19.0974 131.699C8.14932 120.155 3.49845 105.787 1.44054 90.2654C1.13185 87.7917 0.493898 85.3593 0 82.9063C0.0411582 78.7286 0.0617374 74.5509 0.0617374 70.3732ZM12.1417 67.3017H115.922C115.243 34.1962 94.6638 10.676 66.5322 10.4699C35.6636 10.2225 13.4793 33.1861 12.1417 67.3017Z" fill="white"/>
</svg>
