<svg width="150" height="150" viewBox="0 0 150 150" fill="none" xmlns="http://www.w3.org/2000/svg">
<g id="nextjs">
<mask id="mask0_224_26" style="mask-type:alpha" maskUnits="userSpaceOnUse" x="0" y="0" width="150" height="150">
<g id="Group">
<path id="Vector" d="M75 150C116.421 150 150 116.421 150 75C150 33.5786 116.421 0 75 0C33.5786 0 0 33.5786 0 75C0 116.421 33.5786 150 75 150Z" fill="black"/>
</g>
</mask>
<g mask="url(#mask0_224_26)">
<g id="Group_2">
<path id="Vector_2" d="M75 150C116.421 150 150 116.421 150 75C150 33.5786 116.421 0 75 0C33.5786 0 0 33.5786 0 75C0 116.421 33.5786 150 75 150Z" fill="black"/>
<path id="Vector_3" d="M124.59 131.267L57.6183 45H45V104.975H55.0947V57.8197L116.666 137.371C119.444 135.512 122.091 133.471 124.59 131.267Z" fill="url(#paint0_linear_224_26)"/>
<path id="Vector_4" d="M105.834 45H95.834V105H105.834V45Z" fill="url(#paint1_linear_224_26)"/>
</g>
</g>
</g>
<defs>
<linearGradient id="paint0_linear_224_26" x1="90.8333" y1="97.0833" x2="120.417" y2="133.75" gradientUnits="userSpaceOnUse">
<stop stop-color="white"/>
<stop offset="1" stop-color="white" stop-opacity="0"/>
</linearGradient>
<linearGradient id="paint1_linear_224_26" x1="100.834" y1="45" x2="100.666" y2="89.0625" gradientUnits="userSpaceOnUse">
<stop stop-color="white"/>
<stop offset="1" stop-color="white" stop-opacity="0"/>
</linearGradient>
</defs>
</svg>
