<svg width="133" height="150" viewBox="0 0 133 150" fill="none" xmlns="http://www.w3.org/2000/svg">
<g id="nodejs">
<g id="Group 7">
<path id="Vector" d="M66.1635 150C64.1086 150 62.1905 149.449 60.4099 148.484L42.1909 137.597C39.4515 136.082 40.8212 135.53 41.6431 135.255C45.3419 134.014 46.0264 133.739 49.8619 131.534C50.2729 131.259 50.8213 131.396 51.2323 131.672L65.2048 140.078C65.7525 140.354 66.437 140.354 66.848 140.078L121.506 108.245C122.05 107.969 122.33 107.418 122.33 106.73V43.2017C122.33 42.5123 122.05 41.9611 121.506 41.6856L66.848 9.99065C66.3003 9.71506 65.615 9.71506 65.2048 9.99065L10.5479 41.6856C9.99944 41.9611 9.72594 42.6505 9.72594 43.2017V106.73C9.72594 107.281 9.99944 107.969 10.5479 108.245L25.4791 116.926C33.5611 121.061 38.6296 116.238 38.6296 111.415V48.7134C38.6296 47.8867 39.3141 47.0599 40.2735 47.0599H47.2593C48.0813 47.0599 48.9032 47.7492 48.9032 48.7134V111.415C48.9032 122.301 43.0128 128.64 32.7392 128.64C29.5888 128.64 27.123 128.64 20.1364 125.195L5.75292 116.926C2.19161 114.86 0 111.001 0 106.867V43.3391C0 39.2053 2.19161 35.347 5.75292 33.2797L60.4099 1.44738C63.8344 -0.48246 68.4919 -0.48246 71.9164 1.44738L126.575 33.2797C130.134 35.347 132.325 39.2053 132.325 43.3391V106.867C132.325 111.001 130.134 114.86 126.575 116.926L71.9164 148.76C70.2725 149.449 68.2184 150 66.1635 150Z" fill="#5FA04E"/>
<path id="Vector_2" d="M83.2248 106.529C59.3656 106.529 54.4585 95.4256 54.4585 85.9876C54.4585 85.1549 55.1397 84.3222 56.0938 84.3222H63.1825C64.0005 84.3222 64.6824 84.8773 64.6824 85.71C65.7725 93.0659 68.9083 96.6743 83.3602 96.6743C94.8103 96.6743 99.7195 94.0378 99.7195 87.7921C99.7195 84.183 98.3515 81.5458 80.4952 79.742C65.6364 78.215 56.3667 74.8842 56.3667 62.8089C56.3667 51.5671 65.6364 44.9048 81.177 44.9048C98.6293 44.9048 107.215 51.012 108.305 64.3359C108.305 64.7519 108.17 65.1686 107.899 65.5846C107.621 65.8622 107.215 66.1405 106.802 66.1405H99.577C98.9001 66.1405 98.2161 65.5846 98.0807 64.8911C96.442 57.2576 92.2167 54.7588 81.041 54.7588C68.4993 54.7588 66.9994 59.2006 66.9994 62.5314C66.9994 66.5565 68.7715 67.8059 85.6758 70.0264C102.441 72.2469 110.35 75.4393 110.35 87.3754C110.35 99.5891 100.396 106.529 83.2248 106.529Z" fill="#5FA04E"/>
</g>
</g>
</svg>
