<svg width="120" height="150" viewBox="0 0 120 150" fill="none" xmlns="http://www.w3.org/2000/svg">
<g id="storybook">
<path id="Vector" d="M4.63925 138.225L0.0047874 14.4003C-0.0651524 12.4336 0.633496 10.5173 1.95173 9.06019C3.26996 7.60304 5.10344 6.72032 7.06113 6.60028L112.009 0.0152999C113.035 -0.0503516 114.063 0.0957468 115.029 0.444561C115.996 0.793375 116.882 1.33749 117.631 2.04326C118.38 2.74903 118.976 3.60145 119.384 4.54781C119.791 5.49417 120.001 6.51436 120 7.54528V142.462C119.999 143.481 119.792 144.489 119.393 145.425C118.993 146.362 118.409 147.207 117.675 147.911C116.94 148.614 116.072 149.162 115.121 149.519C114.171 149.877 113.158 150.038 112.144 149.992L11.8152 145.47C9.93038 145.385 8.14636 144.592 6.8171 143.248C5.48784 141.905 4.71048 140.117 4.63925 138.225Z" fill="#FF4785"/>
<path id="Vector_2" fill-rule="evenodd" clip-rule="evenodd" d="M103.758 0.532715L89.316 1.43271L88.6134 18.4352C88.6047 18.6479 88.6565 18.8587 88.7625 19.0431C88.8686 19.2275 89.0246 19.378 89.2125 19.4769C89.4004 19.5759 89.6124 19.6193 89.8239 19.6022C90.0354 19.5851 90.2377 19.5081 90.4074 19.3802L96.9853 14.3702L102.547 18.7652C102.715 18.8985 102.917 18.9808 103.13 19.0024C103.343 19.0239 103.558 18.9838 103.749 18.8868C103.94 18.7898 104.099 18.6399 104.208 18.4549C104.317 18.2698 104.371 18.0574 104.363 17.8427L103.758 0.532715ZM92.5153 57.4576C89.8766 59.5201 70.1727 60.9226 70.1727 57.9901C70.5913 46.7926 65.598 46.3051 62.8173 46.3051C60.1862 46.3051 55.7461 47.1001 55.7461 53.1001C55.7461 59.2126 62.2343 62.6626 69.8513 66.7126C80.6675 72.465 93.7711 79.4325 93.7711 96.9525C93.7711 113.752 80.1667 123.022 62.8248 123.022C44.9223 123.022 29.2773 115.755 31.0414 90.5625C31.7365 87.6075 54.4977 88.3125 54.4977 90.5625C54.2137 100.957 56.5758 104.017 62.5408 104.017C67.1229 104.017 69.2009 101.482 69.2009 97.2225C69.2009 90.765 62.4436 86.955 54.6622 82.575C44.13 76.6425 31.7365 69.66 31.7365 53.6326C31.7365 37.6426 42.6948 26.9776 62.2642 26.9776C81.8336 26.9776 92.5153 37.4776 92.5153 57.4576Z" fill="white"/>
</g>
</svg>
