<?xml version="1.0" encoding="UTF-8"?><svg id="a" xmlns="http://www.w3.org/2000/svg" xmlns:xlink="http://www.w3.org/1999/xlink" viewBox="0 0 989.83 988.34"><defs><linearGradient id="b" x1="494.93" y1="849.46" x2="983.91" y2="849.46" gradientUnits="userSpaceOnUse"><stop offset="0" stop-color="#542279"/><stop offset="1" stop-color="#220e31"/></linearGradient><linearGradient id="c" x1="529" y1="446.3" x2="632.39" y2="625.37" gradientUnits="userSpaceOnUse"><stop offset=".47" stop-color="#8535c0"/><stop offset="1" stop-color="#431b62"/></linearGradient><linearGradient id="d" x1="601.47" y1="338.73" x2="730.15" y2="587.38" gradientUnits="userSpaceOnUse"><stop offset=".36" stop-color="#fff"/><stop offset="1" stop-color="#999"/></linearGradient><linearGradient id="e" x1="995.79" y1="976.5" x2="790.05" y2="770.75" gradientUnits="userSpaceOnUse"><stop offset=".31" stop-color="#fff"/><stop offset="1" stop-color="gray"/></linearGradient><linearGradient id="f" x1="749.39" y1="582.52" x2="786.3" y2="645.2" gradientUnits="userSpaceOnUse"><stop offset="0" stop-color="#ff1b58"/><stop offset="1" stop-color="#bf183e"/></linearGradient><linearGradient id="g" x1="550.96" y1="466.46" x2="514.94" y2="446.12" gradientUnits="userSpaceOnUse"><stop offset="0" stop-color="#000" stop-opacity="0"/><stop offset="1" stop-color="#000" stop-opacity=".2"/></linearGradient><linearGradient id="h" x1="790.08" y1="736.55" x2="757.09" y2="679.41" gradientUnits="userSpaceOnUse"><stop offset=".17" stop-color="#000" stop-opacity="0"/><stop offset="1" stop-color="#000" stop-opacity=".3"/></linearGradient><linearGradient id="i" x1="3444.44" y1="849.46" x2="3933.43" y2="849.46" gradientTransform="translate(3939.33) rotate(-180) scale(1 -1)" gradientUnits="userSpaceOnUse"><stop offset="0" stop-color="#8535c0"/><stop offset="1" stop-color="#431b62"/></linearGradient><linearGradient id="j" x1="3478.43" y1="446.17" x2="3581.88" y2="625.37" gradientTransform="translate(3939.33) rotate(-180) scale(1 -1)" gradientUnits="userSpaceOnUse"><stop offset=".47" stop-color="#ae56f2"/><stop offset="1" stop-color="#772fa8"/></linearGradient><linearGradient id="k" x1="3551.14" y1="339.03" x2="3679.83" y2="587.68" gradientTransform="translate(3939.33) rotate(-180) scale(1 -1)" gradientUnits="userSpaceOnUse"><stop offset=".36" stop-color="#fff"/><stop offset="1" stop-color="#999"/></linearGradient><linearGradient id="l" x1="3945.3" y1="976.5" x2="3739.56" y2="770.75" gradientTransform="translate(3939.33) rotate(-180) scale(1 -1)" xlink:href="#e"/><linearGradient id="m" x1=".64" y1="451.54" x2="455.33" y2="760.73" gradientUnits="userSpaceOnUse"><stop offset="0" stop-color="#edca94"/><stop offset=".45" stop-color="#ff8c00"/><stop offset="1" stop-color="#da1546"/></linearGradient><linearGradient id="n" x1="3500.47" y1="466.46" x2="3464.46" y2="446.12" gradientTransform="translate(3939.33) rotate(-180) scale(1 -1)" xlink:href="#g"/><linearGradient id="o" x1="3739.59" y1="736.55" x2="3706.61" y2="679.41" gradientTransform="translate(3939.33) rotate(-180) scale(1 -1)" xlink:href="#h"/><linearGradient id="p" x1="989.83" y1="520.22" x2="648.61" y2="520.22" xlink:href="#f"/><linearGradient id="q" x1="0" y1="520.21" x2="341.11" y2="520.21" xlink:href="#m"/></defs><polygon points="812.85 637.69 914.94 579.09 869.36 668.94 812.85 637.69" fill="#a41435"/><polygon points="494.93 710.58 494.93 818.24 794.67 988.34 983.91 988.34 494.93 710.58" fill="url(#b)"/><polygon points="495.08 502.07 495.08 249.67 673.04 609.73 575.83 665.28 495.08 502.07" fill="url(#c)"/><path d="M494.89,250.07l177.96,359.39,96.88-54.2L494.89,0s-1.87,250.07,0,250.07Z" fill="url(#d)"/><polygon points="847.91 712.89 983.94 988.34 771 867.44 847.91 712.89" fill="url(#e)"/><polygon points="494.92 710.58 989.71 430.42 914.95 579.07 590.84 765.22 494.92 710.58" fill="url(#f)"/><polygon points="590.86 765.24 700.92 702.01 819.3 771.8 771.35 868.06 590.86 765.24" fill="#380912"/><polygon points="700.92 702.02 812.89 637.72 869.35 668.94 819.3 771.8 700.92 702.02" fill="#6e0f22"/><polygon points="494.93 501.84 494.93 249.44 557.52 376.36 494.93 501.84" fill="#ae56f2"/><polygon points="557.91 378.28 494.87 501.74 513.5 537.42 598.17 457.65 557.91 378.28" fill="url(#g)"/><polygon points="914.95 579.07 590.84 765.22 672.08 809.6 844.7 718.57 914.95 579.07" fill="url(#h)"/><polygon points="176.98 637.69 74.88 579.09 120.46 668.94 176.98 637.69" fill="#f28800"/><polygon points="494.89 710.58 494.89 818.24 195.16 988.34 5.91 988.34 494.89 710.58" fill="url(#i)"/><polygon points="494.89 501.84 494.89 249.44 316.82 609.75 414.14 665.05 494.89 501.84" fill="url(#j)"/><path d="M494.78,250.37l-177.96,359.39-96.88-54.2L494.78.3s1.87,250.07,0,250.07Z" fill="url(#k)"/><polygon points="141.91 712.89 5.88 988.34 218.83 867.44 141.91 712.89" fill="url(#l)"/><polygon points="494.9 710.58 .11 430.42 74.87 579.07 398.98 765.22 494.9 710.58" fill="url(#m)"/><polygon points="398.96 765.24 288.91 702.01 170.52 771.8 218.47 868.06 398.96 765.24" fill="#bf183e"/><polygon points="288.9 702.02 176.93 637.72 120.47 668.94 170.52 771.8 288.9 702.02" fill="#f5213c"/><polygon points="494.89 501.84 494.89 249.44 432.3 376.36 494.89 501.84" fill="#ae56f2"/><polygon points="431.91 378.28 494.95 501.74 476.32 537.42 391.65 457.65 431.91 378.28" fill="url(#n)"/><polygon points="74.87 579.07 398.98 765.22 319 810.81 145.12 718.57 74.87 579.07" fill="url(#o)"/><polygon points="989.83 430.68 648.61 560.44 673.02 609.76 989.83 430.68" fill="url(#p)"/><polygon points="0 430.67 341.11 560.69 316.82 609.75 0 430.67" fill="url(#q)"/></svg>