<svg width="100" height="150" viewBox="0 0 100 150" fill="none" xmlns="http://www.w3.org/2000/svg">
<g id="figma">
<path id="Vector" d="M0 125C0 111.193 11.193 100 25 100H50V125C50 138.807 38.807 150 25 150C11.193 150 0 138.807 0 125Z" fill="#24CB71"/>
<path id="Vector_2" d="M50.0005 0V50H75.0005C88.8075 50 100 38.807 100 25C100 11.193 88.8075 0 75.0005 0H50.0005Z" fill="#FF7237"/>
<path id="Vector_3" d="M74.7915 100C88.5986 100 99.7915 88.8071 99.7915 75C99.7915 61.1929 88.5986 50 74.7915 50C60.9844 50 49.7915 61.1929 49.7915 75C49.7915 88.8071 60.9844 100 74.7915 100Z" fill="#00B6FF"/>
<path id="Vector_4" d="M0 25C0 38.807 11.193 50 25 50H50V0H25C11.193 0 0 11.193 0 25Z" fill="#FF3737"/>
<path id="Vector_5" d="M0 75C0 88.807 11.193 100 25 100H50V50H25C11.193 50 0 61.193 0 75Z" fill="#874FFF"/>
</g>
</svg>
