<svg width="100" height="150" viewBox="0 0 100 150" fill="none" xmlns="http://www.w3.org/2000/svg">
<g id="postgresql">
<g id="postgresql_2">
<path id="Vector" d="M98.4716 84.9022C97.8902 83.1365 96.3673 81.9067 94.3978 81.6116C93.4691 81.4726 92.4055 81.5319 91.147 81.792C88.9532 82.2459 87.3257 82.4187 86.138 82.4521C90.6212 74.8619 94.2667 66.2063 96.3654 58.0585C99.759 44.8837 97.9455 38.8818 95.8264 36.167C90.2183 28.9812 82.0361 25.121 72.1652 25.0029C66.8994 24.9383 62.2768 25.9808 59.8653 26.7306C57.62 26.3333 55.2059 26.1115 52.6728 26.0705C47.9244 25.9945 43.729 27.0325 40.1442 29.1658C38.1595 28.4928 34.9742 27.5441 31.2958 26.9387C22.6444 25.5144 15.6716 26.6242 10.5714 30.2372C4.3955 34.6117 1.53253 42.2122 2.06202 52.8276C2.23018 56.1979 4.1103 66.4524 7.0706 76.1775C8.77195 81.7673 10.5862 86.4092 12.4629 89.9755C15.1243 95.0325 17.9722 98.0105 21.1692 99.08C22.961 99.6786 26.2168 100.098 29.6411 97.238C30.0751 97.7651 30.6542 98.2889 31.4227 98.7754C32.3987 99.3926 33.5922 99.8969 34.7841 100.196C39.0795 101.273 43.1029 101.003 46.5356 99.494C46.5568 100.106 46.573 100.691 46.5867 101.196C46.6094 102.015 46.6321 102.819 46.6621 103.57C46.8654 108.649 47.2101 112.599 48.2312 115.362C48.2873 115.514 48.3626 115.746 48.4422 115.992C48.9516 117.556 49.8034 120.174 51.9706 122.224C54.2147 124.349 56.9292 125 59.4153 125C60.6622 125 61.8518 124.836 62.8953 124.612C66.6146 123.812 70.8388 122.595 73.8945 118.232C76.7836 114.107 78.188 107.895 78.4422 98.1062C78.4751 97.8293 78.5054 97.565 78.5346 97.3132L78.5952 96.7959L79.2758 96.8559L79.4512 96.8677C83.2394 97.0409 87.8715 96.2353 90.7163 94.9102C92.9642 93.8642 100.168 90.0507 98.4716 84.9022" fill="black"/>
<path id="Vector_2" d="M91.9941 85.9033C80.7301 88.2333 79.9555 84.4092 79.9555 84.4092C91.8483 66.7133 96.8201 44.2509 92.53 38.7533C80.8251 23.757 60.5639 30.8494 60.2257 31.0332L60.117 31.0529C57.8914 30.5896 55.4011 30.3138 52.6018 30.2679C47.5053 30.1843 43.6391 31.6078 40.7053 33.8387C40.7053 33.8387 4.56116 18.9074 6.24243 52.6175C6.59997 59.7888 16.4929 106.88 28.2925 92.6565C32.6053 87.4551 36.7727 83.0575 36.7727 83.0575C38.8422 84.4361 41.32 85.1395 43.9175 84.887L44.1193 84.7153C44.0565 85.3609 44.0852 85.9925 44.2 86.7404C41.1602 90.146 42.0536 90.7438 35.977 91.9983C29.828 93.2691 33.4401 95.5312 35.7986 96.1229C38.6578 96.8396 45.2722 97.8551 49.7415 91.5813L49.5635 92.2972C50.7543 93.2539 51.5905 98.5194 51.4504 103.293C51.3103 108.066 51.2167 111.344 52.1549 113.903C53.0938 116.463 54.0289 122.223 62.0175 120.507C68.6922 119.072 72.1514 115.355 72.6328 109.154C72.974 104.747 73.747 105.398 73.7955 101.457L74.4155 99.5916C75.1302 93.6162 74.5292 91.6884 78.6412 92.5851L79.6411 92.6732C82.6674 92.811 86.6291 92.1848 88.9542 91.1012C93.9606 88.7715 96.93 84.8813 91.9933 85.9033H91.9941" fill="#336791"/>
<path id="Vector_3" d="M42.8211 55.8245C41.806 55.6828 40.8868 55.8138 40.4217 56.167C40.1604 56.3657 40.0793 56.5958 40.0574 56.7542C39.999 57.1739 40.2922 57.638 40.4725 57.8772C40.9823 58.5548 41.7269 59.0204 42.4639 59.123C42.5707 59.1382 42.6772 59.145 42.7828 59.145C44.0119 59.145 45.1296 58.1853 45.228 57.4769C45.3511 56.5897 44.0668 55.9984 42.8211 55.8248V55.8245ZM76.448 55.8526C76.3511 55.1572 75.1171 54.9589 73.946 55.1222C72.7764 55.2855 71.6425 55.815 71.7371 56.5119C71.8129 57.0538 72.7889 57.979 73.9441 57.979C74.0418 57.979 74.1403 57.9726 74.2395 57.9585C75.0107 57.8514 75.5765 57.3603 75.8454 57.0774C76.2545 56.6459 76.4916 56.1651 76.448 55.8526" fill="white"/>
<path id="Vector_4" d="M95.7427 85.6388C95.3132 84.3365 93.9307 83.9176 91.634 84.3931C84.8146 85.8044 82.3724 84.8268 81.5706 84.2347C86.8712 76.1374 91.2318 66.3493 93.5842 57.217C94.6985 52.8911 95.3139 48.8736 95.3643 45.599C95.42 42.005 94.8094 39.3639 93.5505 37.7505C88.4745 31.2464 81.0244 27.7576 72.0064 27.6619C65.8066 27.592 60.5685 29.183 59.5531 29.6304C57.4146 29.0972 55.0834 28.7698 52.5454 28.728C47.8913 28.6524 43.8682 29.7698 40.5375 32.0474C39.0907 31.5074 35.3517 30.2202 30.779 29.4815C22.8737 28.2054 16.5918 29.1724 12.1089 32.357C6.7598 36.1572 4.29034 42.9503 4.76871 52.547C4.92967 55.7757 6.76434 65.7082 9.65951 75.2202C13.4705 87.7399 17.6133 94.8273 21.9719 96.2853C22.4821 96.4558 23.0703 96.5751 23.7191 96.5751C25.3091 96.5751 27.2585 95.8565 29.2867 93.4114C31.7606 90.4355 34.3196 87.5319 36.9606 84.7041C38.6741 85.6263 40.5565 86.1413 42.4816 86.1929C42.4854 86.2434 42.4904 86.294 42.4949 86.3441C42.1635 86.7404 41.839 87.1424 41.5215 87.55C40.1876 89.248 39.9099 89.6016 35.616 90.4881C34.3946 90.741 31.1506 91.4114 31.1028 93.6917C31.0513 96.1831 34.9377 97.2295 35.3805 97.3404C36.9235 97.7278 38.4101 97.9188 39.8277 97.9188C43.2755 97.9188 46.3097 96.7825 48.7344 94.5838C48.6598 103.466 49.0291 112.218 50.0926 114.884C50.9638 117.067 53.0916 122.402 59.8129 122.402C60.7992 122.402 61.8847 122.287 63.0789 122.03C70.0937 120.522 73.14 117.413 74.3183 110.559C74.9489 106.896 76.031 98.149 76.54 93.4569C77.6142 93.7931 78.997 93.9469 80.4919 93.9465C83.6098 93.9465 87.2075 93.2822 89.4637 92.2321C91.9983 91.0517 96.5721 88.1553 95.7427 85.6388V85.6388ZM79.0375 53.9333C79.0144 55.3184 78.8243 56.5759 78.6228 57.8885C78.4057 59.3002 78.1815 60.7598 78.1251 62.5315C78.0694 64.2558 78.2842 66.0485 78.4917 67.7822C78.9114 71.284 79.342 74.889 77.6751 78.4462C77.3982 77.9542 77.1516 77.4457 76.9366 76.9236C76.7294 76.42 76.2794 75.611 75.6564 74.4914C73.2328 70.1328 67.5572 59.9261 70.4626 55.7612C71.328 54.5216 73.5244 53.247 79.0375 53.9333V53.9333ZM72.3548 30.4667C80.4351 30.6456 86.8269 33.6768 91.3522 39.4755C94.8231 43.9233 91.0011 64.1616 79.9367 81.6213C79.8254 81.4794 79.7135 81.338 79.6011 81.1971L79.4609 81.0216C82.3201 76.2867 81.7611 71.6019 81.2634 67.4484C81.0589 65.7439 80.8657 64.1339 80.915 62.6215C80.9657 61.0188 81.1771 59.6439 81.3816 58.3146C81.6327 56.6766 81.8884 54.9815 81.8179 52.9834C81.8706 52.7738 81.8918 52.5261 81.8641 52.2322C81.6842 50.3161 79.5026 44.5815 75.0561 39.3912C72.6237 36.5522 69.0767 33.3752 64.2337 31.2324C66.3168 30.7994 69.1654 30.3957 72.3548 30.4667V30.4667ZM27.1404 91.6218C24.9057 94.3161 23.3627 93.7995 22.8552 93.6301C19.5487 92.5242 15.7119 85.5161 12.3293 74.4032C9.40234 64.7875 7.6919 55.1182 7.55631 52.4069C7.12908 43.8318 9.20198 37.8557 13.7178 34.6441C21.0671 29.4181 33.15 32.5461 38.0052 34.1325C37.9355 34.2016 37.8628 34.2662 37.7939 34.3365C29.8265 42.4049 30.0155 56.19 30.0351 57.0328C30.0344 57.3579 30.0617 57.8182 30.0988 58.4514C30.2359 60.77 30.4912 65.0853 29.8094 69.9721C29.1761 74.5134 30.5722 78.9582 33.639 82.1671C33.9537 82.4958 34.2845 82.8086 34.6301 83.1044C33.2651 84.5704 30.2984 87.8124 27.1404 91.6218V91.6218ZM35.6543 80.2305C33.1826 77.6441 32.0599 74.0466 32.5739 70.3595C33.2935 65.1973 33.028 60.7013 32.8852 58.2858C32.8652 57.9477 32.8474 57.6515 32.8371 57.4179C34.001 56.383 39.3948 53.4851 43.2414 54.3689C44.9965 54.7719 46.0661 55.9705 46.5108 58.0321C48.8121 68.7055 46.8153 73.1541 45.2109 76.7291C44.8803 77.4656 44.5678 78.1617 44.3012 78.8818L44.0944 79.4386C43.5709 80.8461 43.0839 82.1549 42.782 83.3976C40.1542 83.39 37.598 82.2643 35.6543 80.2301V80.2305ZM36.0577 94.6248C35.2903 94.4326 34.6002 94.0988 34.1953 93.8219C34.5336 93.6624 35.1354 93.4452 36.1792 93.2295C41.2306 92.1869 42.0109 91.4509 43.7145 89.2818C44.105 88.7843 44.5477 88.2207 45.1609 87.534L45.1617 87.5332C46.0748 86.5078 46.4926 86.6817 47.2501 86.997C47.8641 87.2514 48.4621 88.0232 48.7045 88.8724C48.8193 89.2735 48.9481 90.0346 48.5265 90.6271C44.9678 95.6237 39.7819 95.5595 36.0577 94.6248V94.6248ZM62.4941 119.293C56.3144 120.621 54.1263 117.459 52.6844 113.845C51.7538 111.511 51.2963 100.989 51.6209 89.368C51.6251 89.2135 51.6031 89.0642 51.5607 88.9237C51.5227 88.6462 51.465 88.3718 51.388 88.1026C50.9054 86.4117 49.7294 84.9973 48.3186 84.4109C47.758 84.1781 46.7293 83.7508 45.4931 84.068C45.7567 82.9787 46.2139 81.7485 46.7096 80.4166L46.9176 79.8564C47.1516 79.2248 47.4456 78.5704 47.7561 77.8776C49.4351 74.1374 51.7345 69.0143 49.2389 57.4407C48.3042 53.1057 45.1825 50.9887 40.4504 51.4805C37.6136 51.7749 35.018 52.9226 33.7234 53.5808C33.445 53.7221 33.1905 53.8588 32.9527 53.9918C33.314 49.6241 34.679 41.4615 39.7853 36.297C43.0005 33.0459 47.2823 31.4401 52.4992 31.5267C62.7785 31.6954 69.3703 36.9852 73.0904 41.3935C76.2961 45.1919 78.0319 49.0183 78.7247 51.0821C73.5149 50.5508 69.9717 51.582 68.1757 54.157C64.2681 59.7582 70.3134 70.6296 73.2188 75.8545C73.7517 76.8119 74.2115 77.6395 74.3561 77.9912C75.3023 80.2905 76.5271 81.8256 77.4214 82.946C77.6956 83.2894 77.9615 83.6225 78.1637 83.9134C76.5859 84.3695 73.7517 85.4235 74.01 90.6916C73.8017 93.335 72.3204 105.711 71.5678 110.084C70.5743 115.86 68.4545 118.012 62.4941 119.294V119.293ZM88.2885 89.6935C86.675 90.4444 83.9749 91.0076 81.41 91.1288C78.5769 91.2617 77.1347 90.8105 76.7953 90.5329C76.6362 87.2499 77.8547 86.907 79.1443 86.5439C79.3469 86.4869 79.5446 86.4311 79.7355 86.3642C79.8541 86.4611 79.984 86.5572 80.1264 86.6513C82.4035 88.1584 86.4648 88.3209 92.1987 87.1341L92.2616 87.1215C91.4882 87.8466 90.1648 88.8196 88.2885 89.6935Z" fill="white"/>
</g>
</g>
</svg>
