<svg width="174" height="150" viewBox="0 0 174 150" fill="none" xmlns="http://www.w3.org/2000/svg">
<g id="react">
<path id="Vector" d="M101.993 74.8605C101.993 66.5851 95.0744 59.8755 86.5382 59.8755C78.0032 59.8755 71.083 66.5851 71.083 74.8605C71.083 83.137 78.0032 89.8461 86.5382 89.8461C95.0744 89.8461 101.993 83.137 101.993 74.8605Z" fill="#53C1DE"/>
<path id="Vector_2" fill-rule="evenodd" clip-rule="evenodd" d="M136.733 47.0406C139.997 34.1814 144.099 10.3355 129.637 2.25092C115.242 -5.79837 96.51 9.62555 86.6187 18.8837C76.7562 9.7178 57.4979 -5.64018 43.0479 2.47003C28.6587 10.5463 33.096 33.9969 36.4321 46.9367C23.0095 50.6331 0 58.5946 0 74.861C0 91.0811 22.9855 99.7431 36.3287 103.436C32.9803 116.447 28.7652 139.563 43.1727 147.621C57.6767 155.73 76.875 140.737 86.8581 131.378C96.8129 140.691 115.365 155.781 129.763 147.7C144.205 139.594 140.444 116.068 137.108 103.053C150.042 99.3519 173.077 90.8786 173.077 74.861C173.077 58.751 149.944 50.7248 136.733 47.0406ZM135.093 96.1558C132.903 89.4323 129.946 82.2825 126.329 74.8967C129.782 67.6852 132.624 60.6277 134.753 53.9475C144.438 56.67 165.684 62.8921 165.684 74.861C165.684 86.9423 145.296 93.2233 135.093 96.1558ZM126.058 141.496C115.315 147.525 99.3583 133.094 92.0065 126.236C96.8838 121.064 101.758 115.051 106.514 108.374C114.882 107.655 122.787 106.478 129.955 104.871C132.303 114.077 136.847 135.44 126.058 141.496ZM46.867 141.41C36.1236 135.404 41.0341 114.777 43.4975 105.192C50.5866 106.713 58.4342 107.807 66.8215 108.466C71.6094 114.999 76.6246 121.004 81.6785 126.264C75.4344 132.12 57.6606 147.444 46.867 141.41ZM7.39321 74.861C7.39321 62.7346 28.5119 56.5575 38.4175 53.8419C40.5837 60.6721 43.4247 67.8138 46.8533 75.0358C43.3803 82.365 40.4987 89.6198 38.3126 96.5308C28.8674 93.9092 7.39321 86.9948 7.39321 74.861ZM46.7521 8.67426C57.5394 2.62015 74.2771 17.3644 81.4379 24.0007C76.41 29.2358 71.441 35.1958 66.694 41.6913C58.5542 42.4229 50.762 43.5975 43.5986 45.1713C40.9111 34.7349 35.9765 14.7219 46.7521 8.67426ZM111.804 49.4833C117.326 50.1588 122.617 51.0577 127.585 52.1573C126.093 56.7923 124.235 61.639 122.045 66.6075C118.872 60.769 115.465 55.0477 111.804 49.4833ZM86.621 29.1236C90.0312 32.7056 93.4465 36.7056 96.8065 41.0452C89.9913 40.7325 83.1652 40.7313 76.35 41.0406C79.7129 36.7412 83.1577 32.7472 86.621 29.1236ZM51.0952 66.6023C48.9421 61.6512 47.0999 56.7831 45.5955 52.0817C50.5337 51.0104 55.8 50.1346 61.2865 49.47C57.615 55.0223 54.214 60.7413 51.0952 66.6023ZM61.444 100.764C55.7763 100.15 50.4303 99.319 45.4936 98.2771C47.0218 93.4933 48.9045 88.5202 51.1036 83.4623C54.2654 89.3844 57.7183 95.1588 61.444 100.764ZM86.8258 121.105C83.3215 117.438 79.826 113.383 76.4123 109.022C83.2662 109.282 90.1333 109.283 96.9865 108.987C93.6162 113.428 90.2129 117.489 86.8258 121.105ZM122.116 83.205C124.429 88.3177 126.379 93.2636 127.928 97.9667C122.909 99.0773 117.492 99.9715 111.783 100.636C115.471 94.9656 118.932 89.1554 122.116 83.205ZM102.388 101.504C91.9044 102.231 81.3554 102.223 70.8681 101.564C64.909 93.124 59.6042 84.2481 55.0252 75.0335C59.5823 65.8379 64.8485 56.9792 70.7792 48.5527C81.274 47.7836 91.8335 47.7813 102.328 48.5573C108.208 56.9833 113.466 65.8188 118.129 74.9313C113.522 84.1223 108.228 92.9988 102.388 101.504ZM125.944 8.46115C136.734 14.4954 131.931 35.9265 129.574 45.2458C122.394 43.639 114.596 42.4436 106.432 41.7006C101.676 35.1348 96.7488 29.1645 91.8023 23.9971C99.0548 17.2177 115.258 2.4859 125.944 8.46115Z" fill="#53C1DE"/>
</g>
</svg>
