<svg width="200" height="150" viewBox="0 0 200 150" fill="none" xmlns="http://www.w3.org/2000/svg">
<g id="sass">
<path id="Vector" d="M172.216 86.2291C165.238 86.2657 159.174 87.9462 154.096 90.4305C152.233 86.7406 150.37 83.4526 150.041 81.0414C149.676 78.2283 149.238 76.5112 149.676 73.1501C150.115 69.789 152.087 65.0031 152.051 64.6377C152.014 64.2724 151.612 62.5553 147.594 62.5188C143.576 62.4822 140.105 63.286 139.703 64.3455C139.301 65.4049 138.534 67.8162 138.023 70.3005C137.329 73.9538 129.986 86.9963 125.785 93.8281C124.433 91.1612 123.264 88.823 123.009 86.9598C122.643 84.1467 122.205 82.4296 122.643 79.0685C123.082 75.7074 125.054 70.9215 125.018 70.5562C124.981 70.1909 124.58 68.4738 120.561 68.4372C116.543 68.4007 113.072 69.2044 112.67 70.2639C112.269 71.3234 111.83 73.8077 110.99 76.2189C110.15 78.6301 100.396 100.404 97.839 106.03C96.5239 108.917 95.3914 111.218 94.5878 112.789C94.5878 112.789 94.5512 112.899 94.4416 113.081C93.7475 114.433 93.3457 115.164 93.3457 115.164C93.3457 115.164 93.3457 115.164 93.3457 115.2C92.7977 116.187 92.2133 117.1 91.921 117.1C91.7018 117.1 91.3 114.47 91.9941 110.889C93.4553 103.327 96.9257 91.5631 96.8892 91.1612C96.8892 90.942 97.5467 88.8961 94.6243 87.8366C91.7749 86.7771 90.752 88.5308 90.4963 88.5308C90.2406 88.5308 90.0579 89.1518 90.0579 89.1518C90.0579 89.1518 93.2361 75.9266 83.9938 75.9266C78.222 75.9266 70.2583 82.247 66.3129 87.9462C63.8288 89.298 58.5319 92.1841 52.8696 95.2895C50.7143 96.4951 48.4859 97.7007 46.4037 98.8333C46.2575 98.6871 46.1114 98.5045 45.9653 98.3583C34.7869 86.4118 14.1105 77.9725 14.9872 61.9342C15.316 56.0889 17.3252 40.7447 54.6961 22.1125C85.4551 6.95104 109.931 11.1524 114.168 20.4685C120.232 33.7668 101.054 58.4635 69.2719 62.0438C57.1437 63.3956 50.7874 58.7193 49.18 56.9657C47.4996 55.139 47.2439 55.0294 46.6228 55.3947C45.6 55.9427 46.2575 57.5867 46.6228 58.5366C47.5726 61.0209 51.4814 65.4049 58.0935 67.5604C63.9384 69.4602 78.1489 70.5197 95.3549 63.8705C114.607 56.4177 129.657 35.703 125.237 18.3495C120.817 0.740309 91.5922 -5.06855 63.9384 4.75902C47.4996 10.6044 29.6726 19.8109 16.8503 31.7939C1.61693 46.0421 -0.794099 58.427 0.192232 63.6148C3.73572 82.0278 29.1246 94.0108 39.2802 102.888C38.7687 103.181 38.2938 103.437 37.892 103.656C32.8142 106.177 13.4529 116.296 8.63084 127.001C3.15123 139.13 9.50758 147.825 13.7086 148.994C26.7501 152.611 40.1569 146.108 47.3535 135.367C54.55 124.626 53.6733 110.67 50.349 104.277C50.3125 104.204 50.2759 104.131 50.2029 104.058C51.518 103.29 52.8696 102.487 54.1847 101.719C56.7784 100.185 59.3356 98.7602 61.5274 97.5911C60.2854 100.989 59.3721 105.044 58.9337 110.889C58.3858 117.758 61.1986 126.672 64.8882 130.179C66.5321 131.714 68.4683 131.75 69.7103 131.75C74.0209 131.75 75.9571 128.17 78.1124 123.932C80.7426 118.744 83.1171 112.716 83.1171 112.716C83.1171 112.716 80.1581 129.01 88.1949 129.01C91.1173 129.01 94.0763 125.211 95.3914 123.274C95.3914 123.311 95.3914 123.311 95.3914 123.311C95.3914 123.311 95.4645 123.201 95.6106 122.945C95.9029 122.471 96.0855 122.178 96.0855 122.178C96.0855 122.178 96.0855 122.142 96.0855 122.105C97.2545 120.059 99.8847 115.42 103.794 107.711C108.835 97.7738 113.693 85.3523 113.693 85.3523C113.693 85.3523 114.132 88.3846 115.629 93.4263C116.506 96.3855 118.333 99.637 119.794 102.779C118.625 104.423 117.894 105.336 117.894 105.336C117.894 105.336 117.894 105.336 117.931 105.373C116.981 106.615 115.958 107.967 114.826 109.282C110.844 114.031 106.095 119.475 105.437 121.046C104.67 122.909 104.853 124.261 106.314 125.357C107.374 126.16 109.273 126.27 111.209 126.16C114.789 125.905 117.31 125.028 118.552 124.48C120.488 123.786 122.753 122.726 124.872 121.155C128.781 118.269 131.155 114.141 130.936 108.697C130.826 105.702 129.84 102.706 128.634 99.8927C129 99.3813 129.329 98.8698 129.694 98.3583C135.868 89.3345 140.653 79.4339 140.653 79.4339C140.653 79.4339 141.091 82.4662 142.589 87.5078C143.32 90.0652 144.818 92.8417 146.133 95.5452C140.324 100.258 136.744 105.738 135.466 109.318C133.164 115.968 134.954 118.963 138.352 119.657C139.886 119.986 142.078 119.256 143.685 118.561C145.731 117.904 148.142 116.771 150.443 115.091C154.352 112.205 158.115 108.186 157.896 102.742C157.786 100.258 157.128 97.8103 156.215 95.4356C161.147 93.3897 167.503 92.2572 175.613 93.2071C193.002 95.253 196.436 106.103 195.778 110.67C195.12 115.237 191.467 117.721 190.262 118.488C189.056 119.256 188.655 119.511 188.764 120.059C188.91 120.863 189.495 120.827 190.518 120.68C191.942 120.425 199.65 116.991 199.979 108.588C200.527 97.8469 190.298 86.1195 172.216 86.2291ZM38.0746 131.458C32.3028 137.742 24.266 140.116 20.7956 138.107C17.0695 135.951 18.5307 126.672 25.6177 120.023C29.9283 115.968 35.481 112.205 39.1706 109.903C40.0108 109.391 41.2528 108.661 42.7506 107.747C43.0063 107.601 43.1524 107.528 43.1524 107.528C43.4447 107.346 43.7369 107.163 44.0292 106.98C46.6228 116.479 44.1388 124.845 38.0746 131.458ZM80.085 102.888C78.0758 107.784 73.8748 120.315 71.3176 119.621C69.1258 119.036 67.7742 109.538 70.8793 100.148C72.4501 95.4356 75.7744 89.8094 77.7105 87.6174C80.8522 84.1102 84.3226 82.9411 85.1628 84.3659C86.2222 86.2291 81.3271 99.8197 80.085 102.888ZM114.753 119.475C113.913 119.913 113.109 120.205 112.744 119.986C112.488 119.84 113.109 119.256 113.109 119.256C113.109 119.256 117.456 114.579 119.173 112.46C120.159 111.218 121.328 109.757 122.57 108.113C122.57 108.259 122.57 108.442 122.57 108.588C122.57 114.177 117.164 117.94 114.753 119.475ZM141.493 113.374C140.872 112.935 140.982 111.474 143.064 106.907C143.868 105.117 145.767 102.121 149.019 99.2351C149.384 100.404 149.64 101.537 149.603 102.596C149.567 109.647 144.525 112.278 141.493 113.374Z" fill="#CD6799"/>
</g>
</svg>
