<svg width="167" height="150" viewBox="0 0 167 150" fill="none" xmlns="http://www.w3.org/2000/svg">
<g id="sketch" clip-path="url(#clip0_225_133)">
<path id="Vector" fill-rule="evenodd" clip-rule="evenodd" d="M33.819 53.4873L83.493 150L0 53.4873H33.819Z" fill="#EA6C00"/>
<path id="Vector_2" fill-rule="evenodd" clip-rule="evenodd" d="M133.181 53.4873L83.5071 150L167 53.4873H133.181Z" fill="#EA6C00"/>
<path id="Vector_3" fill-rule="evenodd" clip-rule="evenodd" d="M33.8169 53.4873H133.165L83.4908 150L33.8169 53.4873Z" fill="#FDAD00"/>
<path id="Vector_4" fill-rule="evenodd" clip-rule="evenodd" d="M83.4908 0L36.4314 4.93794L33.8169 53.4874L83.4908 0Z" fill="#FDD231"/>
<path id="Vector_5" fill-rule="evenodd" clip-rule="evenodd" d="M83.4911 0L130.551 4.93794L133.165 53.4874L83.4911 0Z" fill="#FDD231"/>
<path id="Vector_6" fill-rule="evenodd" clip-rule="evenodd" d="M167 53.4875L130.567 4.93799L133.181 53.4875H167Z" fill="#FDAD00"/>
<path id="Vector_7" fill-rule="evenodd" clip-rule="evenodd" d="M0 53.4875L36.4334 4.93799L33.8189 53.4875H0Z" fill="#FDAD00"/>
<path id="Vector_8" fill-rule="evenodd" clip-rule="evenodd" d="M83.4908 0L33.8169 53.4874H133.165L83.4908 0Z" fill="#FEEEB7"/>
</g>
<defs>
<clipPath id="clip0_225_133">
<rect width="167" height="150" fill="white"/>
</clipPath>
</defs>
</svg>
